<svg width="151" height="32" viewBox="0 0 151 32" fill="none" xmlns="http://www.w3.org/2000/svg">
<path d="M12.7347 7.26268C13.0173 7.77934 13.162 8.34868 13.1813 8.93734C14.0053 8.8281 14.8355 8.77353 15.6667 8.77401C16.7533 8.77401 17.808 8.86601 18.8167 9.03868C18.8163 8.41859 18.9705 7.8082 19.2653 7.26268C20.4387 5.12334 23.542 4.69868 26.1987 6.31401C28.854 7.92868 30.0567 10.9727 28.884 13.1127C28.6059 13.6198 28.2062 14.0498 27.7207 14.364C28.3307 15.4 28.6667 16.5333 28.6667 17.72C28.6667 22.66 22.8467 26.6667 15.6667 26.6667C8.48667 26.6667 2.66667 22.6613 2.66667 17.72C2.66667 16.4 3.08267 15.146 3.82933 14.0173C3.54272 13.7577 3.30161 13.4519 3.116 13.1127C1.94267 10.9727 3.146 7.92868 5.802 6.31401C8.458 4.69868 11.562 5.12334 12.7347 7.26268Z" stroke="white" stroke-width="4" stroke-linejoin="round"/>
<path d="M8 12.6667C8.73638 12.6667 9.33333 12.0697 9.33333 11.3333C9.33333 10.597 8.73638 10 8 10C7.26362 10 6.66667 10.597 6.66667 11.3333C6.66667 12.0697 7.26362 12.6667 8 12.6667Z" fill="white"/>
<path d="M13.4373 20.384C14.1737 20.384 14.7707 19.787 14.7707 19.0506C14.7707 18.3142 14.1737 17.7173 13.4373 17.7173C12.701 17.7173 12.104 18.3142 12.104 19.0506C12.104 19.787 12.701 20.384 13.4373 20.384Z" fill="white"/>
<path d="M18.7707 20.384C19.507 20.384 20.104 19.787 20.104 19.0506C20.104 18.3142 19.507 17.7173 18.7707 17.7173C18.0343 17.7173 17.4373 18.3142 17.4373 19.0506C17.4373 19.787 18.0343 20.384 18.7707 20.384Z" fill="white"/>
<path d="M24 12.6667C24.7364 12.6667 25.3333 12.0697 25.3333 11.3333C25.3333 10.597 24.7364 10 24 10C23.2636 10 22.6667 10.597 22.6667 11.3333C22.6667 12.0697 23.2636 12.6667 24 12.6667Z" fill="white"/>
<path d="M60.9 11.5C61.9667 11.5 62.9083 11.7083 63.725 12.125C64.5583 12.5417 65.2083 13.1833 65.675 14.05C66.1417 14.9 66.375 16 66.375 17.35V25H63.25V17.75C63.25 16.5667 62.9917 15.6833 62.475 15.1C61.9583 14.5167 61.2167 14.225 60.25 14.225C59.5667 14.225 58.9583 14.375 58.425 14.675C57.9083 14.975 57.5 15.4167 57.2 16C56.9167 16.5833 56.775 17.325 56.775 18.225V25H53.65V17.75C53.65 16.5667 53.3917 15.6833 52.875 15.1C52.3583 14.5167 51.6167 14.225 50.65 14.225C49.9667 14.225 49.3583 14.375 48.825 14.675C48.3083 14.975 47.9 15.4167 47.6 16C47.3167 16.5833 47.175 17.325 47.175 18.225V25H44.05V11.65H47.025V15.2L46.5 14.15C46.95 13.2833 47.6 12.625 48.45 12.175C49.3167 11.725 50.3 11.5 51.4 11.5C52.65 11.5 53.7333 11.8083 54.65 12.425C55.5833 13.0417 56.2 13.975 56.5 15.225L55.275 14.8C55.7083 13.8 56.425 13 57.425 12.4C58.425 11.8 59.5833 11.5 60.9 11.5ZM78.5934 25V22.3L78.4184 21.725V17C78.4184 16.0833 78.1434 15.375 77.5934 14.875C77.0434 14.3583 76.21 14.1 75.0934 14.1C74.3434 14.1 73.6017 14.2167 72.8684 14.45C72.1517 14.6833 71.5434 15.0083 71.0434 15.425L69.8184 13.15C70.535 12.6 71.385 12.1917 72.3684 11.925C73.3684 11.6417 74.4017 11.5 75.4684 11.5C77.4017 11.5 78.8934 11.9667 79.9434 12.9C81.01 13.8167 81.5434 15.2417 81.5434 17.175V25H78.5934ZM74.3934 25.175C73.3934 25.175 72.5184 25.0083 71.7684 24.675C71.0184 24.325 70.435 23.85 70.0184 23.25C69.6184 22.6333 69.4184 21.9417 69.4184 21.175C69.4184 20.425 69.5934 19.75 69.9434 19.15C70.31 18.55 70.9017 18.075 71.7184 17.725C72.535 17.375 73.6184 17.2 74.9684 17.2H78.8434V19.275H75.1934C74.1267 19.275 73.41 19.45 73.0434 19.8C72.6767 20.1333 72.4934 20.55 72.4934 21.05C72.4934 21.6167 72.7184 22.0667 73.1684 22.4C73.6184 22.7333 74.2434 22.9 75.0434 22.9C75.81 22.9 76.4934 22.725 77.0934 22.375C77.71 22.025 78.1517 21.5083 78.4184 20.825L78.9434 22.7C78.6434 23.4833 78.1017 24.0917 77.3184 24.525C76.5517 24.9583 75.5767 25.175 74.3934 25.175ZM85.5539 25V11.65H88.6789V25H85.5539ZM87.1289 9.45C86.5456 9.45 86.0622 9.26667 85.6789 8.9C85.3122 8.53333 85.1289 8.09167 85.1289 7.575C85.1289 7.04167 85.3122 6.6 85.6789 6.25C86.0622 5.88333 86.5456 5.7 87.1289 5.7C87.7122 5.7 88.1872 5.875 88.5539 6.225C88.9372 6.55833 89.1289 6.98333 89.1289 7.5C89.1289 8.05 88.9456 8.51667 88.5789 8.9C88.2122 9.26667 87.7289 9.45 87.1289 9.45ZM92.7805 25V6.45H95.9055V25H92.7805ZM100.432 25V10.9C100.432 9.5 100.84 8.38333 101.657 7.55C102.49 6.7 103.674 6.275 105.207 6.275C105.757 6.275 106.274 6.33333 106.757 6.45C107.257 6.56667 107.674 6.75 108.007 7L107.157 9.35C106.924 9.16667 106.657 9.03333 106.357 8.95C106.057 8.85 105.749 8.8 105.432 8.8C104.782 8.8 104.29 8.98333 103.957 9.35C103.624 9.7 103.457 10.2333 103.457 10.95V12.45L103.557 13.85V25H100.432ZM98.232 14.25V11.75H107.132V14.25H98.232ZM109.26 25V11.65H112.235V15.325L111.885 14.25C112.285 13.35 112.91 12.6667 113.76 12.2C114.627 11.7333 115.702 11.5 116.985 11.5V14.475C116.852 14.4417 116.727 14.425 116.61 14.425C116.493 14.4083 116.377 14.4 116.26 14.4C115.077 14.4 114.135 14.75 113.435 15.45C112.735 16.1333 112.385 17.1583 112.385 18.525V25H109.26ZM125.514 25.175C124.147 25.175 122.931 24.8833 121.864 24.3C120.797 23.7 119.956 22.8833 119.339 21.85C118.722 20.8167 118.414 19.6417 118.414 18.325C118.414 16.9917 118.722 15.8167 119.339 14.8C119.956 13.7667 120.797 12.9583 121.864 12.375C122.931 11.7917 124.147 11.5 125.514 11.5C126.897 11.5 128.122 11.7917 129.189 12.375C130.272 12.9583 131.114 13.7583 131.714 14.775C132.331 15.7917 132.639 16.975 132.639 18.325C132.639 19.6417 132.331 20.8167 131.714 21.85C131.114 22.8833 130.272 23.7 129.189 24.3C128.122 24.8833 126.897 25.175 125.514 25.175ZM125.514 22.5C126.281 22.5 126.964 22.3333 127.564 22C128.164 21.6667 128.631 21.1833 128.964 20.55C129.314 19.9167 129.489 19.175 129.489 18.325C129.489 17.4583 129.314 16.7167 128.964 16.1C128.631 15.4667 128.164 14.9833 127.564 14.65C126.964 14.3167 126.289 14.15 125.539 14.15C124.772 14.15 124.089 14.3167 123.489 14.65C122.906 14.9833 122.439 15.4667 122.089 16.1C121.739 16.7167 121.564 17.4583 121.564 18.325C121.564 19.175 121.739 19.9167 122.089 20.55C122.439 21.1833 122.906 21.6667 123.489 22C124.089 22.3333 124.764 22.5 125.514 22.5ZM141.677 30.025C140.444 30.025 139.235 29.8583 138.052 29.525C136.885 29.2083 135.927 28.7417 135.177 28.125L136.577 25.775C137.16 26.2583 137.894 26.6417 138.777 26.925C139.677 27.225 140.585 27.375 141.502 27.375C142.969 27.375 144.044 27.0333 144.727 26.35C145.41 25.6833 145.752 24.675 145.752 23.325V20.95L146.002 17.925L145.902 14.9V11.65H148.877V22.975C148.877 25.3917 148.26 27.1667 147.027 28.3C145.794 29.45 144.01 30.025 141.677 30.025ZM141.277 24.4C140.01 24.4 138.86 24.1333 137.827 23.6C136.81 23.05 136.002 22.2917 135.402 21.325C134.819 20.3583 134.527 19.225 134.527 17.925C134.527 16.6417 134.819 15.5167 135.402 14.55C136.002 13.5833 136.81 12.8333 137.827 12.3C138.86 11.7667 140.01 11.5 141.277 11.5C142.41 11.5 143.427 11.725 144.327 12.175C145.227 12.625 145.944 13.325 146.477 14.275C147.027 15.225 147.302 16.4417 147.302 17.925C147.302 19.4083 147.027 20.6333 146.477 21.6C145.944 22.55 145.227 23.2583 144.327 23.725C143.427 24.175 142.41 24.4 141.277 24.4ZM141.752 21.75C142.535 21.75 143.235 21.5917 143.852 21.275C144.469 20.9417 144.944 20.4917 145.277 19.925C145.627 19.3417 145.802 18.675 145.802 17.925C145.802 17.175 145.627 16.5167 145.277 15.95C144.944 15.3667 144.469 14.925 143.852 14.625C143.235 14.3083 142.535 14.15 141.752 14.15C140.969 14.15 140.26 14.3083 139.627 14.625C139.01 14.925 138.527 15.3667 138.177 15.95C137.844 16.5167 137.677 17.175 137.677 17.925C137.677 18.675 137.844 19.3417 138.177 19.925C138.527 20.4917 139.01 20.9417 139.627 21.275C140.26 21.5917 140.969 21.75 141.752 21.75Z" fill="white"/>
</svg>
